<svg width="316" height="59" viewBox="0 0 316 59" fill="none" xmlns="http://www.w3.org/2000/svg">
<g filter="url(#filter0_g_26_3406)">
<path d="M29 -0.5L31.7313 10.769L38.5671 1.40301L36.778 12.8594L46.6777 6.82233L40.6406 16.722L52.097 14.9329L42.731 21.7687L54 24.5L42.731 27.2313L52.097 34.0671L40.6406 32.278L46.6777 42.1777L36.778 36.1406L38.5671 47.597L31.7313 38.231L29 49.5L26.2687 38.231L19.4329 47.597L21.222 36.1406L11.3223 42.1777L17.3594 32.278L5.90301 34.0671L15.269 27.2313L4 24.5L15.269 21.7687L5.90301 14.9329L17.3594 16.722L11.3223 6.82233L21.222 12.8594L19.4329 1.40301L26.2687 10.769L29 -0.5Z" fill="#7B7736"/>
<path d="M31.2451 10.8867L31.499 11.9346L32.1348 11.0635L37.7549 3.36328L36.2842 12.7822L36.1172 13.8477L37.0381 13.2861L45.1758 8.32324L40.2139 16.4619L39.6523 17.3828L40.7178 17.2158L50.1357 15.7441L42.4365 21.3652L41.5654 22.001L42.6133 22.2549L51.875 24.5L42.6133 26.7451L41.5654 26.999L42.4365 27.6348L50.1357 33.2549L40.7178 31.7842L39.6523 31.6172L40.2139 32.5381L45.1758 40.6758L37.0381 35.7139L36.1172 35.1523L36.2842 36.2178L37.7549 45.6357L32.1348 37.9365L31.499 37.0654L31.2451 38.1133L29 47.375L26.7549 38.1133L26.501 37.0654L25.8652 37.9365L20.2441 45.6357L21.7158 36.2178L21.8828 35.1523L20.9619 35.7139L12.8232 40.6758L17.7861 32.5381L18.3477 31.6172L17.2822 31.7842L7.86328 33.2549L15.5635 27.6348L16.4346 26.999L15.3867 26.7451L6.12402 24.5L15.3867 22.2549L16.4346 22.001L15.5635 21.3652L7.86328 15.7441L17.2822 17.2158L18.3477 17.3828L17.7861 16.4619L12.8232 8.32324L20.9619 13.2861L21.8828 13.8477L21.7158 12.7822L20.2441 3.36328L25.8652 11.0635L26.501 11.9346L26.7549 10.8867L29 1.62402L31.2451 10.8867Z" stroke="#1E0202"/>
</g>
<path d="M85.952 36.884C84.2453 36.884 82.7413 36.612 81.44 36.068C80.1493 35.524 79.136 34.7133 78.4 33.636C77.6747 32.548 77.312 31.1987 77.312 29.588C77.312 29.4173 77.312 29.2627 77.312 29.124C77.312 28.9747 77.312 28.8147 77.312 28.644H82.288C82.288 28.804 82.288 28.948 82.288 29.076C82.288 29.1933 82.288 29.332 82.288 29.492C82.288 30.5907 82.5973 31.4333 83.216 32.02C83.8347 32.6067 84.752 32.9 85.968 32.9C87.1947 32.9 88.1387 32.708 88.8 32.324C89.4613 31.9293 89.792 31.284 89.792 30.388C89.792 29.7587 89.5413 29.204 89.04 28.724C88.5493 28.244 87.8773 27.8173 87.024 27.444C86.1813 27.06 85.216 26.7027 84.128 26.372C82.944 25.9987 81.8453 25.508 80.832 24.9C79.8187 24.292 79.0027 23.5187 78.384 22.58C77.776 21.6413 77.472 20.484 77.472 19.108C77.472 17.7213 77.84 16.5427 78.576 15.572C79.312 14.5907 80.3147 13.844 81.584 13.332C82.8533 12.8093 84.288 12.548 85.888 12.548C87.5627 12.548 89.04 12.8093 90.32 13.332C91.6107 13.844 92.6187 14.6173 93.344 15.652C94.08 16.676 94.448 17.956 94.448 19.492C94.448 19.6627 94.448 19.8227 94.448 19.972C94.448 20.1107 94.448 20.2707 94.448 20.452H89.488C89.488 20.3347 89.488 20.212 89.488 20.084C89.488 19.956 89.488 19.8333 89.488 19.716C89.488 18.6813 89.2 17.8867 88.624 17.332C88.0587 16.7773 87.168 16.5 85.952 16.5C84.7787 16.5 83.8667 16.7133 83.216 17.14C82.576 17.5667 82.256 18.2227 82.256 19.108C82.256 19.748 82.4853 20.292 82.944 20.74C83.4133 21.188 84.0533 21.588 84.864 21.94C85.6747 22.292 86.5973 22.644 87.632 22.996C89.04 23.4867 90.2667 24.0307 91.312 24.628C92.368 25.2147 93.184 25.956 93.76 26.852C94.336 27.7373 94.624 28.868 94.624 30.244C94.624 31.652 94.2613 32.852 93.536 33.844C92.8107 34.836 91.792 35.5933 90.48 36.116C89.1787 36.628 87.6693 36.884 85.952 36.884ZM102.674 36.852C101.436 36.852 100.332 36.6547 99.3615 36.26C98.4015 35.8653 97.6495 35.2947 97.1055 34.548C96.5615 33.8013 96.2895 32.8947 96.2895 31.828C96.2895 30.6227 96.6202 29.6413 97.2815 28.884C97.9428 28.1267 98.8175 27.5507 99.9055 27.156C101.004 26.7507 102.194 26.484 103.474 26.356C105.34 26.1747 106.626 26.0093 107.33 25.86C108.044 25.7107 108.402 25.4493 108.402 25.076C108.402 25.0653 108.402 25.0547 108.402 25.044C108.402 24.4147 108.098 23.9187 107.49 23.556C106.892 23.1933 106.055 23.012 104.978 23.012C103.836 23.012 102.962 23.22 102.354 23.636C101.756 24.0413 101.458 24.6653 101.458 25.508H96.5775C96.5775 24.1427 96.9455 22.9907 97.6815 22.052C98.4282 21.1133 99.4362 20.404 100.706 19.924C101.975 19.4333 103.41 19.188 105.01 19.188C106.503 19.188 107.884 19.4173 109.154 19.876C110.423 20.324 111.442 21.0013 112.21 21.908C112.988 22.8147 113.378 23.9667 113.378 25.364C113.378 25.588 113.378 25.812 113.378 26.036C113.378 26.2493 113.378 26.468 113.378 26.692V32.708C113.378 33.1453 113.388 33.5667 113.41 33.972C113.442 34.3667 113.506 34.7293 113.602 35.06C113.708 35.4333 113.842 35.7427 114.002 35.988C114.162 36.2333 114.295 36.404 114.402 36.5H109.522C109.447 36.4253 109.33 36.2707 109.17 36.036C109.02 35.8013 108.892 35.5293 108.786 35.22C108.658 34.8467 108.562 34.4733 108.498 34.1C108.444 33.716 108.418 33.268 108.418 32.756L109.442 33.46C109.143 34.164 108.658 34.772 107.986 35.284C107.324 35.7853 106.535 36.1747 105.618 36.452C104.711 36.7187 103.73 36.852 102.674 36.852ZM104.002 33.14C104.78 33.14 105.506 33.0013 106.178 32.724C106.86 32.436 107.415 31.988 107.842 31.38C108.268 30.772 108.482 29.9773 108.482 28.996V27.284L109.714 28.484C109.01 28.74 108.194 28.9533 107.266 29.124C106.348 29.284 105.431 29.412 104.514 29.508C103.426 29.6147 102.61 29.8013 102.066 30.068C101.532 30.324 101.266 30.7613 101.266 31.38C101.266 31.9667 101.495 32.4093 101.954 32.708C102.412 32.996 103.095 33.14 104.002 33.14ZM123.119 36.884C122.106 36.884 121.13 36.7667 120.191 36.532C119.253 36.2973 118.41 35.9507 117.663 35.492C116.927 35.0333 116.341 34.4627 115.903 33.78C115.477 33.0867 115.263 32.2813 115.263 31.364C115.263 31.3213 115.263 31.2733 115.263 31.22C115.263 31.156 115.263 31.108 115.263 31.076H120.191C120.191 31.108 120.191 31.1453 120.191 31.188C120.191 31.22 120.191 31.2573 120.191 31.3C120.191 31.9187 120.463 32.372 121.007 32.66C121.562 32.948 122.309 33.092 123.247 33.092C123.738 33.092 124.207 33.044 124.655 32.948C125.114 32.8413 125.487 32.676 125.775 32.452C126.074 32.2173 126.223 31.924 126.223 31.572C126.223 31.0067 125.909 30.6067 125.279 30.372C124.661 30.1373 123.663 29.9027 122.287 29.668C121.509 29.54 120.719 29.3587 119.919 29.124C119.119 28.8893 118.383 28.58 117.711 28.196C117.039 27.8013 116.501 27.3053 116.095 26.708C115.69 26.1 115.487 25.364 115.487 24.5C115.487 23.348 115.834 22.3773 116.527 21.588C117.231 20.7987 118.165 20.2013 119.327 19.796C120.49 19.3907 121.77 19.188 123.167 19.188C124.501 19.188 125.743 19.412 126.895 19.86C128.047 20.2973 128.981 20.932 129.695 21.764C130.41 22.5853 130.767 23.5773 130.767 24.74C130.767 24.7613 130.767 24.7933 130.767 24.836C130.767 24.8787 130.767 24.9213 130.767 24.964H125.887C125.887 24.9213 125.887 24.884 125.887 24.852C125.887 24.82 125.887 24.7933 125.887 24.772C125.887 24.3453 125.749 23.9987 125.471 23.732C125.205 23.4653 124.863 23.268 124.447 23.14C124.031 23.0013 123.599 22.932 123.151 22.932C122.746 22.932 122.325 22.98 121.887 23.076C121.461 23.1613 121.098 23.3107 120.799 23.524C120.501 23.7267 120.351 24.0147 120.351 24.388C120.351 24.7507 120.511 25.0493 120.831 25.284C121.151 25.508 121.599 25.6947 122.175 25.844C122.751 25.9827 123.418 26.116 124.175 26.244C124.89 26.3613 125.642 26.5267 126.431 26.74C127.231 26.9427 127.978 27.236 128.671 27.62C129.375 27.9933 129.941 28.4893 130.367 29.108C130.805 29.716 131.023 30.4893 131.023 31.428C131.023 32.3987 130.799 33.2307 130.351 33.924C129.903 34.6173 129.295 35.1827 128.527 35.62C127.77 36.0467 126.922 36.3613 125.983 36.564C125.055 36.7773 124.101 36.884 123.119 36.884ZM141.377 36.852C140.726 36.852 140.054 36.7933 139.361 36.676C138.678 36.5693 138.038 36.3507 137.441 36.02C136.854 35.6787 136.379 35.1827 136.017 34.532C135.654 33.8813 135.473 33.0227 135.473 31.956C135.473 31.7213 135.473 31.4813 135.473 31.236C135.473 30.9907 135.473 30.7453 135.473 30.5V23.348H131.553V19.508H132.657C133.297 19.508 133.803 19.4813 134.177 19.428C134.561 19.3747 134.843 19.2413 135.025 19.028C135.217 18.804 135.339 18.4573 135.393 17.988C135.446 17.5187 135.473 16.8733 135.473 16.052V13.908H140.449V19.508H145.393V23.348H140.449V29.46C140.449 29.652 140.449 29.8387 140.449 30.02C140.449 30.2013 140.449 30.3773 140.449 30.548C140.449 31.284 140.534 31.8813 140.705 32.34C140.886 32.7987 141.329 33.028 142.033 33.028C142.385 33.028 142.715 32.996 143.025 32.932C143.345 32.868 143.585 32.804 143.745 32.74V36.468C143.521 36.564 143.206 36.6493 142.801 36.724C142.395 36.8093 141.921 36.852 141.377 36.852ZM147.44 36.5V19.508H152.416V25.364L151.392 24.724C151.509 23.924 151.722 23.188 152.032 22.516C152.341 21.844 152.741 21.2627 153.232 20.772C153.722 20.2707 154.304 19.8813 154.976 19.604C155.658 19.3267 156.437 19.188 157.312 19.188C157.994 19.188 158.528 19.2413 158.912 19.348C159.306 19.444 159.552 19.5187 159.648 19.572L158.832 24.02C158.736 23.9667 158.522 23.8813 158.192 23.764C157.861 23.6467 157.434 23.588 156.912 23.588C156.058 23.588 155.344 23.732 154.768 24.02C154.192 24.308 153.728 24.692 153.376 25.172C153.034 25.6413 152.789 26.164 152.64 26.74C152.49 27.316 152.416 27.8973 152.416 28.484V36.5H147.44ZM167.23 36.82C166.025 36.82 165.033 36.628 164.254 36.244C163.476 35.8493 162.862 35.3213 162.414 34.66C161.966 33.9987 161.652 33.2627 161.47 32.452C161.289 31.6413 161.198 30.82 161.198 29.988C161.198 29.604 161.198 29.1987 161.198 28.772C161.198 28.3453 161.198 27.908 161.198 27.46V19.508H166.158V26.676C166.158 27.0387 166.158 27.3907 166.158 27.732C166.158 28.0733 166.158 28.388 166.158 28.676C166.158 29.3907 166.238 30.0467 166.398 30.644C166.558 31.2413 166.852 31.7213 167.278 32.084C167.716 32.4467 168.334 32.628 169.134 32.628C169.913 32.628 170.574 32.4093 171.118 31.972C171.662 31.524 172.078 30.9533 172.366 30.26C172.654 29.5667 172.798 28.852 172.798 28.116L174.19 29.252C174.19 30.3187 174.025 31.3107 173.694 32.228C173.374 33.1453 172.916 33.9507 172.318 34.644C171.721 35.3267 170.99 35.86 170.126 36.244C169.273 36.628 168.308 36.82 167.23 36.82ZM172.798 36.5V19.508H177.758V36.5H172.798ZM192.248 34.484C193.293 34.5907 194.205 34.7933 194.984 35.092C195.773 35.38 196.386 35.812 196.824 36.388C197.261 36.9533 197.48 37.7107 197.48 38.66C197.48 39.7587 197.117 40.692 196.392 41.46C195.677 42.2387 194.626 42.8307 193.24 43.236C191.853 43.6413 190.173 43.844 188.2 43.844C185.288 43.844 183.032 43.4227 181.432 42.58C179.842 41.748 179.048 40.6333 179.048 39.236C179.048 38.8413 179.09 38.484 179.176 38.164C179.272 37.8547 179.389 37.588 179.528 37.364L184.04 38.02C183.986 38.0947 183.928 38.2067 183.864 38.356C183.81 38.516 183.784 38.7133 183.784 38.948C183.784 39.5133 184.205 39.9347 185.048 40.212C185.901 40.4893 187 40.628 188.344 40.628C189.293 40.628 190.104 40.5587 190.776 40.42C191.458 40.292 191.976 40.1 192.328 39.844C192.69 39.588 192.872 39.2947 192.872 38.964C192.872 38.484 192.637 38.1693 192.168 38.02C191.709 37.8707 191.176 37.764 190.568 37.7L184.136 37.044C182.952 36.9267 181.97 36.5853 181.192 36.02C180.413 35.4547 180.024 34.692 180.024 33.732C180.024 33.1347 180.189 32.5907 180.52 32.1C180.85 31.5987 181.229 31.188 181.656 30.868C182.082 30.5373 182.44 30.3293 182.728 30.244L185.256 31.524C185.053 31.556 184.813 31.684 184.536 31.908C184.269 32.132 184.136 32.3933 184.136 32.692C184.136 32.9907 184.285 33.2467 184.584 33.46C184.893 33.6733 185.453 33.8173 186.264 33.892L192.248 34.484ZM193.928 19.508H198.296L196.52 26.036C196.189 27.2733 195.698 28.3773 195.048 29.348C194.397 30.308 193.528 31.0653 192.44 31.62C191.362 32.1747 190.002 32.452 188.36 32.452C186.632 32.452 185.133 32.1853 183.864 31.652C182.605 31.1187 181.634 30.3667 180.952 29.396C180.269 28.4147 179.928 27.2573 179.928 25.924C179.928 24.5907 180.274 23.4173 180.968 22.404C181.672 21.3907 182.626 20.6013 183.832 20.036C185.048 19.4707 186.424 19.188 187.96 19.188C189.122 19.188 190.184 19.38 191.144 19.764C192.114 20.1373 192.893 20.6333 193.48 21.252C194.077 21.8707 194.386 22.5533 194.408 23.3L193.496 23.54L193.928 19.508ZM188.328 28.82C189.032 28.82 189.65 28.708 190.184 28.484C190.717 28.2493 191.133 27.9133 191.432 27.476C191.73 27.028 191.88 26.4893 191.88 25.86C191.88 25.2413 191.73 24.7133 191.432 24.276C191.133 23.8387 190.717 23.5027 190.184 23.268C189.65 23.0333 189.032 22.916 188.328 22.916C187.656 22.916 187.048 23.0387 186.504 23.284C185.97 23.5187 185.549 23.86 185.24 24.308C184.93 24.7453 184.776 25.2787 184.776 25.908C184.776 26.5267 184.925 27.0547 185.224 27.492C185.522 27.9187 185.938 28.2493 186.472 28.484C187.005 28.708 187.624 28.82 188.328 28.82ZM205.779 36.82C204.574 36.82 203.582 36.628 202.803 36.244C202.025 35.8493 201.411 35.3213 200.963 34.66C200.515 33.9987 200.201 33.2627 200.019 32.452C199.838 31.6413 199.747 30.82 199.747 29.988C199.747 29.604 199.747 29.1987 199.747 28.772C199.747 28.3453 199.747 27.908 199.747 27.46V19.508H204.707V26.676C204.707 27.0387 204.707 27.3907 204.707 27.732C204.707 28.0733 204.707 28.388 204.707 28.676C204.707 29.3907 204.787 30.0467 204.947 30.644C205.107 31.2413 205.401 31.7213 205.827 32.084C206.265 32.4467 206.883 32.628 207.683 32.628C208.462 32.628 209.123 32.4093 209.667 31.972C210.211 31.524 210.627 30.9533 210.915 30.26C211.203 29.5667 211.347 28.852 211.347 28.116L212.739 29.252C212.739 30.3187 212.574 31.3107 212.243 32.228C211.923 33.1453 211.465 33.9507 210.867 34.644C210.27 35.3267 209.539 35.86 208.675 36.244C207.822 36.628 206.857 36.82 205.779 36.82ZM211.347 36.5V19.508H216.307V36.5H211.347ZM226.141 36.884C225.127 36.884 224.151 36.7667 223.213 36.532C222.274 36.2973 221.431 35.9507 220.685 35.492C219.949 35.0333 219.362 34.4627 218.925 33.78C218.498 33.0867 218.285 32.2813 218.285 31.364C218.285 31.3213 218.285 31.2733 218.285 31.22C218.285 31.156 218.285 31.108 218.285 31.076H223.213C223.213 31.108 223.213 31.1453 223.213 31.188C223.213 31.22 223.213 31.2573 223.213 31.3C223.213 31.9187 223.485 32.372 224.029 32.66C224.583 32.948 225.33 33.092 226.269 33.092C226.759 33.092 227.229 33.044 227.677 32.948C228.135 32.8413 228.509 32.676 228.797 32.452C229.095 32.2173 229.245 31.924 229.245 31.572C229.245 31.0067 228.93 30.6067 228.301 30.372C227.682 30.1373 226.685 29.9027 225.309 29.668C224.53 29.54 223.741 29.3587 222.941 29.124C222.141 28.8893 221.405 28.58 220.733 28.196C220.061 27.8013 219.522 27.3053 219.117 26.708C218.711 26.1 218.509 25.364 218.509 24.5C218.509 23.348 218.855 22.3773 219.549 21.588C220.253 20.7987 221.186 20.2013 222.349 19.796C223.511 19.3907 224.791 19.188 226.189 19.188C227.522 19.188 228.765 19.412 229.917 19.86C231.069 20.2973 232.002 20.932 232.717 21.764C233.431 22.5853 233.789 23.5773 233.789 24.74C233.789 24.7613 233.789 24.7933 233.789 24.836C233.789 24.8787 233.789 24.9213 233.789 24.964H228.909C228.909 24.9213 228.909 24.884 228.909 24.852C228.909 24.82 228.909 24.7933 228.909 24.772C228.909 24.3453 228.77 23.9987 228.493 23.732C228.226 23.4653 227.885 23.268 227.469 23.14C227.053 23.0013 226.621 22.932 226.173 22.932C225.767 22.932 225.346 22.98 224.909 23.076C224.482 23.1613 224.119 23.3107 223.821 23.524C223.522 23.7267 223.373 24.0147 223.373 24.388C223.373 24.7507 223.533 25.0493 223.853 25.284C224.173 25.508 224.621 25.6947 225.197 25.844C225.773 25.9827 226.439 26.116 227.197 26.244C227.911 26.3613 228.663 26.5267 229.453 26.74C230.253 26.9427 230.999 27.236 231.693 27.62C232.397 27.9933 232.962 28.4893 233.389 29.108C233.826 29.716 234.045 30.4893 234.045 31.428C234.045 32.3987 233.821 33.2307 233.373 33.924C232.925 34.6173 232.317 35.1827 231.549 35.62C230.791 36.0467 229.943 36.3613 229.005 36.564C228.077 36.7773 227.122 36.884 226.141 36.884Z" fill="#4A90E2"/>
<defs>
<filter id="filter0_g_26_3406" x="0" y="-4.5" width="58" height="58" filterUnits="userSpaceOnUse" color-interpolation-filters="sRGB">
<feFlood flood-opacity="0" result="BackgroundImageFix"/>
<feBlend mode="normal" in="SourceGraphic" in2="BackgroundImageFix" result="shape"/>
<feTurbulence type="fractalNoise" baseFrequency="0.25 0.25" numOctaves="3" seed="4602" />
<feDisplacementMap in="shape" scale="8" xChannelSelector="R" yChannelSelector="G" result="displacedImage" width="100%" height="100%" />
<feMerge result="effect1_texture_26_3406">
<feMergeNode in="displacedImage"/>
</feMerge>
</filter>
</defs>
</svg>
