<svg width="98" height="98" viewBox="0 0 98 98" fill="none" xmlns="http://www.w3.org/2000/svg">
<g filter="url(#filter0_g_48_2)">
<path d="M49 4L53.9163 24.2842L66.2208 7.42542L63.0004 28.047L80.8198 17.1802L69.953 34.9996L90.5746 31.7792L73.7158 44.0837L94 49L73.7158 53.9163L90.5746 66.2208L69.953 63.0004L80.8198 80.8198L63.0004 69.953L66.2208 90.5746L53.9163 73.7158L49 94L44.0837 73.7158L31.7792 90.5746L34.9996 69.953L17.1802 80.8198L28.047 63.0004L7.42542 66.2208L24.2842 53.9163L4 49L24.2842 44.0837L7.42542 31.7792L28.047 34.9996L17.1802 17.1802L34.9996 28.047L31.7792 7.42542L44.0837 24.2842L49 4Z" fill="#7B7736"/>
<path d="M53.4307 24.4023L53.6846 25.4502L54.3203 24.5791L65.4082 9.38672L62.5068 27.9697L62.3398 29.0352L63.2607 28.4736L79.3174 18.6816L69.5264 34.7393L68.9648 35.6602L70.0303 35.4932L88.6123 32.5908L73.4209 43.6797L72.5498 44.3154L73.5977 44.5693L91.875 49L73.5977 53.4307L72.5498 53.6846L73.4209 54.3203L88.6123 65.4082L70.0303 62.5068L68.9648 62.3398L69.5264 63.2607L79.3174 79.3174L63.2607 69.5264L62.3398 68.9648L62.5068 70.0303L65.4082 88.6123L54.3203 73.4209L53.6846 72.5498L53.4307 73.5977L49 91.875L44.5693 73.5977L44.3154 72.5498L43.6797 73.4209L32.5908 88.6123L35.4932 70.0303L35.6602 68.9648L34.7393 69.5264L18.6816 79.3174L28.4736 63.2607L29.0352 62.3398L27.9697 62.5068L9.38672 65.4082L24.5791 54.3203L25.4502 53.6846L24.4023 53.4307L6.12402 49L24.4023 44.5693L25.4502 44.3154L24.5791 43.6797L9.38672 32.5908L27.9697 35.4932L29.0352 35.6602L28.4736 34.7393L18.6816 18.6816L34.7393 28.4736L35.6602 29.0352L35.4932 27.9697L32.5908 9.38672L43.6797 24.5791L44.3154 25.4502L44.5693 24.4023L49 6.12402L53.4307 24.4023Z" stroke="#1E0202"/>
</g>
<defs>
<filter id="filter0_g_48_2" x="0" y="0" width="98" height="98" filterUnits="userSpaceOnUse" color-interpolation-filters="sRGB">
<feFlood flood-opacity="0" result="BackgroundImageFix"/>
<feBlend mode="normal" in="SourceGraphic" in2="BackgroundImageFix" result="shape"/>
<feTurbulence type="fractalNoise" baseFrequency="0.25 0.25" numOctaves="3" seed="4602" />
<feDisplacementMap in="shape" scale="8" xChannelSelector="R" yChannelSelector="G" result="displacedImage" width="100%" height="100%" />
<feMerge result="effect1_texture_48_2">
<feMergeNode in="displacedImage"/>
</feMerge>
</filter>
</defs>
</svg>
